<svg xmlns="http://www.w3.org/2000/svg" width="980" height="440" viewBox="0 0 980 440"><rect width="100%" height="100%" fill="white"/><text x="74.0" y="26.0" font-family="ui-sans-serif,-apple-system,Segoe UI,Roboto,sans-serif" font-size="15" fill="#1b1b1f" text-anchor="start" font-weight="600">The first 50 MB, where the ratio is not constant</text>
<text x="74.0" y="44.0" font-family="ui-sans-serif,-apple-system,Segoe UI,Roboto,sans-serif" font-size="11" fill="#6b7280" text-anchor="start" font-weight="normal">every point is a measured encode -- these are joined, not fitted</text>
<text x="74.0" y="64.0" font-family="ui-sans-serif,-apple-system,Segoe UI,Roboto,sans-serif" font-size="11" fill="#1b1b1f" text-anchor="start" font-weight="600">carrier size</text>
<line x1="74.0" y1="382.0" x2="473.0" y2="382.0" stroke="#e5e7eb" stroke-width="1.0"/>
<text x="66.0" y="386.0" font-family="ui-sans-serif,-apple-system,Segoe UI,Roboto,sans-serif" font-size="9" fill="#6b7280" text-anchor="end" font-weight="normal">0</text>
<line x1="74.0" y1="331.3" x2="473.0" y2="331.3" stroke="#e5e7eb" stroke-width="1.0"/>
<text x="66.0" y="335.3" font-family="ui-sans-serif,-apple-system,Segoe UI,Roboto,sans-serif" font-size="9" fill="#6b7280" text-anchor="end" font-weight="normal">30</text>
<line x1="74.0" y1="280.7" x2="473.0" y2="280.7" stroke="#e5e7eb" stroke-width="1.0"/>
<text x="66.0" y="284.7" font-family="ui-sans-serif,-apple-system,Segoe UI,Roboto,sans-serif" font-size="9" fill="#6b7280" text-anchor="end" font-weight="normal">60</text>
<line x1="74.0" y1="230.0" x2="473.0" y2="230.0" stroke="#e5e7eb" stroke-width="1.0"/>
<text x="66.0" y="234.0" font-family="ui-sans-serif,-apple-system,Segoe UI,Roboto,sans-serif" font-size="9" fill="#6b7280" text-anchor="end" font-weight="normal">90</text>
<line x1="74.0" y1="179.3" x2="473.0" y2="179.3" stroke="#e5e7eb" stroke-width="1.0"/>
<text x="66.0" y="183.3" font-family="ui-sans-serif,-apple-system,Segoe UI,Roboto,sans-serif" font-size="9" fill="#6b7280" text-anchor="end" font-weight="normal">120</text>
<line x1="74.0" y1="128.7" x2="473.0" y2="128.7" stroke="#e5e7eb" stroke-width="1.0"/>
<text x="66.0" y="132.7" font-family="ui-sans-serif,-apple-system,Segoe UI,Roboto,sans-serif" font-size="9" fill="#6b7280" text-anchor="end" font-weight="normal">150</text>
<line x1="74.0" y1="78.0" x2="473.0" y2="78.0" stroke="#e5e7eb" stroke-width="1.0"/>
<text x="66.0" y="82.0" font-family="ui-sans-serif,-apple-system,Segoe UI,Roboto,sans-serif" font-size="9" fill="#6b7280" text-anchor="end" font-weight="normal">180</text>
<line x1="74.0" y1="78.0" x2="74.0" y2="382.0" stroke="#e5e7eb" stroke-width="1.0"/>
<text x="74.0" y="398.0" font-family="ui-sans-serif,-apple-system,Segoe UI,Roboto,sans-serif" font-size="9" fill="#6b7280" text-anchor="middle" font-weight="normal">0</text>
<line x1="153.8" y1="78.0" x2="153.8" y2="382.0" stroke="#e5e7eb" stroke-width="1.0"/>
<text x="153.8" y="398.0" font-family="ui-sans-serif,-apple-system,Segoe UI,Roboto,sans-serif" font-size="9" fill="#6b7280" text-anchor="middle" font-weight="normal">10</text>
<line x1="233.6" y1="78.0" x2="233.6" y2="382.0" stroke="#e5e7eb" stroke-width="1.0"/>
<text x="233.6" y="398.0" font-family="ui-sans-serif,-apple-system,Segoe UI,Roboto,sans-serif" font-size="9" fill="#6b7280" text-anchor="middle" font-weight="normal">20</text>
<line x1="313.4" y1="78.0" x2="313.4" y2="382.0" stroke="#e5e7eb" stroke-width="1.0"/>
<text x="313.4" y="398.0" font-family="ui-sans-serif,-apple-system,Segoe UI,Roboto,sans-serif" font-size="9" fill="#6b7280" text-anchor="middle" font-weight="normal">30</text>
<line x1="393.2" y1="78.0" x2="393.2" y2="382.0" stroke="#e5e7eb" stroke-width="1.0"/>
<text x="393.2" y="398.0" font-family="ui-sans-serif,-apple-system,Segoe UI,Roboto,sans-serif" font-size="9" fill="#6b7280" text-anchor="middle" font-weight="normal">40</text>
<line x1="473.0" y1="78.0" x2="473.0" y2="382.0" stroke="#e5e7eb" stroke-width="1.0"/>
<text x="473.0" y="398.0" font-family="ui-sans-serif,-apple-system,Segoe UI,Roboto,sans-serif" font-size="9" fill="#6b7280" text-anchor="middle" font-weight="normal">50</text>
<path d="M 74.0,382.0 L 74.0,382.0 L 74.1,381.9 L 74.2,381.7 L 74.8,381.0 L 76.4,378.9 L 82.0,371.7 L 90.0,361.4 L 105.9,353.9 L 137.8,325.8 L 201.7,269.6 L 329.4,201.8 L 473.0,104.5" fill="none" stroke="#7c3aed" stroke-width="1.8"/>
<circle cx="74.0" cy="382.0" r="2.4" fill="#7c3aed"/>
<circle cx="74.0" cy="382.0" r="2.4" fill="#7c3aed"/>
<circle cx="74.1" cy="381.9" r="2.4" fill="#7c3aed"/>
<circle cx="74.2" cy="381.7" r="2.4" fill="#7c3aed"/>
<circle cx="74.8" cy="381.0" r="2.4" fill="#7c3aed"/>
<circle cx="76.4" cy="378.9" r="2.4" fill="#7c3aed"/>
<circle cx="82.0" cy="371.7" r="2.4" fill="#7c3aed"/>
<circle cx="90.0" cy="361.4" r="2.4" fill="#7c3aed"/>
<circle cx="105.9" cy="353.9" r="2.4" fill="#7c3aed"/>
<circle cx="137.8" cy="325.8" r="2.4" fill="#7c3aed"/>
<circle cx="201.7" cy="269.6" r="2.4" fill="#7c3aed"/>
<circle cx="329.4" cy="201.8" r="2.4" fill="#7c3aed"/>
<circle cx="473.0" cy="104.5" r="2.4" fill="#7c3aed"/>
<path d="M 74.0,382.0 L 74.0,382.0 L 74.1,382.0 L 74.2,381.9 L 74.8,381.6 L 76.4,380.7 L 82.0,377.6 L 90.0,372.6 L 105.9,364.8 L 137.8,347.1 L 201.7,310.1 L 329.4,236.0 L 473.0,153.1" fill="none" stroke="#dc2626" stroke-width="1.8"/>
<circle cx="74.0" cy="382.0" r="2.4" fill="#dc2626"/>
<circle cx="74.0" cy="382.0" r="2.4" fill="#dc2626"/>
<circle cx="74.1" cy="382.0" r="2.4" fill="#dc2626"/>
<circle cx="74.2" cy="381.9" r="2.4" fill="#dc2626"/>
<circle cx="74.8" cy="381.6" r="2.4" fill="#dc2626"/>
<circle cx="76.4" cy="380.7" r="2.4" fill="#dc2626"/>
<circle cx="82.0" cy="377.6" r="2.4" fill="#dc2626"/>
<circle cx="90.0" cy="372.6" r="2.4" fill="#dc2626"/>
<circle cx="105.9" cy="364.8" r="2.4" fill="#dc2626"/>
<circle cx="137.8" cy="347.1" r="2.4" fill="#dc2626"/>
<circle cx="201.7" cy="310.1" r="2.4" fill="#dc2626"/>
<circle cx="329.4" cy="236.0" r="2.4" fill="#dc2626"/>
<circle cx="473.0" cy="153.1" r="2.4" fill="#dc2626"/>
<path d="M 74.0,382.0 L 74.0,382.0 L 74.1,382.0 L 74.2,381.9 L 74.8,381.7 L 76.4,381.0 L 82.0,378.5 L 90.0,375.3 L 105.9,368.7 L 137.8,356.0 L 201.7,328.3 L 329.4,278.5 L 473.0,218.0" fill="none" stroke="#2563eb" stroke-width="1.8"/>
<circle cx="74.0" cy="382.0" r="2.4" fill="#2563eb"/>
<circle cx="74.0" cy="382.0" r="2.4" fill="#2563eb"/>
<circle cx="74.1" cy="382.0" r="2.4" fill="#2563eb"/>
<circle cx="74.2" cy="381.9" r="2.4" fill="#2563eb"/>
<circle cx="74.8" cy="381.7" r="2.4" fill="#2563eb"/>
<circle cx="76.4" cy="381.0" r="2.4" fill="#2563eb"/>
<circle cx="82.0" cy="378.5" r="2.4" fill="#2563eb"/>
<circle cx="90.0" cy="375.3" r="2.4" fill="#2563eb"/>
<circle cx="105.9" cy="368.7" r="2.4" fill="#2563eb"/>
<circle cx="137.8" cy="356.0" r="2.4" fill="#2563eb"/>
<circle cx="201.7" cy="328.3" r="2.4" fill="#2563eb"/>
<circle cx="329.4" cy="278.5" r="2.4" fill="#2563eb"/>
<circle cx="473.0" cy="218.0" r="2.4" fill="#2563eb"/>
<path d="M 74.0,382.0 L 74.0,382.0 L 74.1,382.0 L 74.2,381.9 L 74.8,381.7 L 76.4,381.2 L 82.0,379.1 L 90.0,376.2 L 105.9,371.4 L 137.8,360.1 L 201.7,340.7 L 329.4,293.4 L 473.0,234.4" fill="none" stroke="#059669" stroke-width="1.8"/>
<circle cx="74.0" cy="382.0" r="2.4" fill="#059669"/>
<circle cx="74.0" cy="382.0" r="2.4" fill="#059669"/>
<circle cx="74.1" cy="382.0" r="2.4" fill="#059669"/>
<circle cx="74.2" cy="381.9" r="2.4" fill="#059669"/>
<circle cx="74.8" cy="381.7" r="2.4" fill="#059669"/>
<circle cx="76.4" cy="381.2" r="2.4" fill="#059669"/>
<circle cx="82.0" cy="379.1" r="2.4" fill="#059669"/>
<circle cx="90.0" cy="376.2" r="2.4" fill="#059669"/>
<circle cx="105.9" cy="371.4" r="2.4" fill="#059669"/>
<circle cx="137.8" cy="360.1" r="2.4" fill="#059669"/>
<circle cx="201.7" cy="340.7" r="2.4" fill="#059669"/>
<circle cx="329.4" cy="293.4" r="2.4" fill="#059669"/>
<circle cx="473.0" cy="234.4" r="2.4" fill="#059669"/>
<text x="273.5" y="424.0" font-family="ui-sans-serif,-apple-system,Segoe UI,Roboto,sans-serif" font-size="11" fill="#6b7280" text-anchor="middle" font-weight="normal">payload (MB)</text>
<text transform="translate(22.0,230.0) rotate(-90)" font-family="ui-sans-serif,-apple-system,Segoe UI,Roboto,sans-serif" font-size="11" fill="#6b7280" text-anchor="middle">carrier (MB)</text>
<text x="559.0" y="64.0" font-family="ui-sans-serif,-apple-system,Segoe UI,Roboto,sans-serif" font-size="11" fill="#1b1b1f" text-anchor="start" font-weight="600">expansion ratio, log payload axis</text>
<line x1="559.0" y1="382.0" x2="958.0" y2="382.0" stroke="#e5e7eb" stroke-width="1.0"/>
<text x="551.0" y="386.0" font-family="ui-sans-serif,-apple-system,Segoe UI,Roboto,sans-serif" font-size="9" fill="#6b7280" text-anchor="end" font-weight="normal">0x</text>
<line x1="559.0" y1="351.6" x2="958.0" y2="351.6" stroke="#e5e7eb" stroke-width="1.0"/>
<text x="551.0" y="355.6" font-family="ui-sans-serif,-apple-system,Segoe UI,Roboto,sans-serif" font-size="9" fill="#6b7280" text-anchor="end" font-weight="normal">1x</text>
<line x1="559.0" y1="321.2" x2="958.0" y2="321.2" stroke="#e5e7eb" stroke-width="1.0"/>
<text x="551.0" y="325.2" font-family="ui-sans-serif,-apple-system,Segoe UI,Roboto,sans-serif" font-size="9" fill="#6b7280" text-anchor="end" font-weight="normal">2x</text>
<line x1="559.0" y1="290.8" x2="958.0" y2="290.8" stroke="#e5e7eb" stroke-width="1.0"/>
<text x="551.0" y="294.8" font-family="ui-sans-serif,-apple-system,Segoe UI,Roboto,sans-serif" font-size="9" fill="#6b7280" text-anchor="end" font-weight="normal">3x</text>
<line x1="559.0" y1="260.4" x2="958.0" y2="260.4" stroke="#e5e7eb" stroke-width="1.0"/>
<text x="551.0" y="264.4" font-family="ui-sans-serif,-apple-system,Segoe UI,Roboto,sans-serif" font-size="9" fill="#6b7280" text-anchor="end" font-weight="normal">4x</text>
<line x1="559.0" y1="230.0" x2="958.0" y2="230.0" stroke="#e5e7eb" stroke-width="1.0"/>
<text x="551.0" y="234.0" font-family="ui-sans-serif,-apple-system,Segoe UI,Roboto,sans-serif" font-size="9" fill="#6b7280" text-anchor="end" font-weight="normal">5x</text>
<line x1="559.0" y1="199.6" x2="958.0" y2="199.6" stroke="#e5e7eb" stroke-width="1.0"/>
<text x="551.0" y="203.6" font-family="ui-sans-serif,-apple-system,Segoe UI,Roboto,sans-serif" font-size="9" fill="#6b7280" text-anchor="end" font-weight="normal">6x</text>
<line x1="559.0" y1="169.2" x2="958.0" y2="169.2" stroke="#e5e7eb" stroke-width="1.0"/>
<text x="551.0" y="173.2" font-family="ui-sans-serif,-apple-system,Segoe UI,Roboto,sans-serif" font-size="9" fill="#6b7280" text-anchor="end" font-weight="normal">7x</text>
<line x1="559.0" y1="138.8" x2="958.0" y2="138.8" stroke="#e5e7eb" stroke-width="1.0"/>
<text x="551.0" y="142.8" font-family="ui-sans-serif,-apple-system,Segoe UI,Roboto,sans-serif" font-size="9" fill="#6b7280" text-anchor="end" font-weight="normal">8x</text>
<line x1="559.0" y1="108.4" x2="958.0" y2="108.4" stroke="#e5e7eb" stroke-width="1.0"/>
<text x="551.0" y="112.4" font-family="ui-sans-serif,-apple-system,Segoe UI,Roboto,sans-serif" font-size="9" fill="#6b7280" text-anchor="end" font-weight="normal">9x</text>
<line x1="559.0" y1="78.0" x2="958.0" y2="78.0" stroke="#e5e7eb" stroke-width="1.0"/>
<text x="551.0" y="82.0" font-family="ui-sans-serif,-apple-system,Segoe UI,Roboto,sans-serif" font-size="9" fill="#6b7280" text-anchor="end" font-weight="normal">10x</text>
<line x1="559.0" y1="78.0" x2="559.0" y2="382.0" stroke="#e5e7eb" stroke-width="1.0"/>
<text x="559.0" y="398.0" font-family="ui-sans-serif,-apple-system,Segoe UI,Roboto,sans-serif" font-size="9" fill="#6b7280" text-anchor="middle" font-weight="normal">1 KB</text>
<line x1="643.9" y1="78.0" x2="643.9" y2="382.0" stroke="#e5e7eb" stroke-width="1.0"/>
<text x="643.9" y="398.0" font-family="ui-sans-serif,-apple-system,Segoe UI,Roboto,sans-serif" font-size="9" fill="#6b7280" text-anchor="middle" font-weight="normal">10 KB</text>
<line x1="728.8" y1="78.0" x2="728.8" y2="382.0" stroke="#e5e7eb" stroke-width="1.0"/>
<text x="728.8" y="398.0" font-family="ui-sans-serif,-apple-system,Segoe UI,Roboto,sans-serif" font-size="9" fill="#6b7280" text-anchor="middle" font-weight="normal">100 KB</text>
<line x1="813.7" y1="78.0" x2="813.7" y2="382.0" stroke="#e5e7eb" stroke-width="1.0"/>
<text x="813.7" y="398.0" font-family="ui-sans-serif,-apple-system,Segoe UI,Roboto,sans-serif" font-size="9" fill="#6b7280" text-anchor="middle" font-weight="normal">1 MB</text>
<line x1="898.6" y1="78.0" x2="898.6" y2="382.0" stroke="#e5e7eb" stroke-width="1.0"/>
<text x="898.6" y="398.0" font-family="ui-sans-serif,-apple-system,Segoe UI,Roboto,sans-serif" font-size="9" fill="#6b7280" text-anchor="middle" font-weight="normal">10 MB</text>
<line x1="864.1" y1="78.0" x2="864.1" y2="382.0" stroke="#7c3aed" stroke-width="1.0" stroke-dasharray="2 3"/>
<text x="860.1" y="90.0" font-family="ui-sans-serif,-apple-system,Segoe UI,Roboto,sans-serif" font-size="8.5" fill="#7c3aed" text-anchor="end" font-weight="normal">7 kHz cover</text>
<line x1="940.8" y1="78.0" x2="940.8" y2="382.0" stroke="#7c3aed" stroke-width="1.0" stroke-dasharray="2 3"/>
<text x="936.8" y="90.0" font-family="ui-sans-serif,-apple-system,Segoe UI,Roboto,sans-serif" font-size="8.5" fill="#7c3aed" text-anchor="end" font-weight="normal">5 kHz cover</text>
<path d="M 559.0,105.9 L 599.5,169.2 L 643.9,185.0 L 684.4,192.6 L 728.8,195.2 L 769.3,196.0 L 813.7,196.3 L 839.3,196.9 L 864.9,255.5 L 890.4,255.6 L 916.0,255.6 L 941.5,280.7 L 958.0,282.1" fill="none" stroke="#7c3aed" stroke-width="1.8"/>
<circle cx="559.0" cy="105.9" r="2.4" fill="#7c3aed"/>
<circle cx="599.5" cy="169.2" r="2.4" fill="#7c3aed"/>
<circle cx="643.9" cy="185.0" r="2.4" fill="#7c3aed"/>
<circle cx="684.4" cy="192.6" r="2.4" fill="#7c3aed"/>
<circle cx="728.8" cy="195.2" r="2.4" fill="#7c3aed"/>
<circle cx="769.3" cy="196.0" r="2.4" fill="#7c3aed"/>
<circle cx="813.7" cy="196.3" r="2.4" fill="#7c3aed"/>
<circle cx="839.3" cy="196.9" r="2.4" fill="#7c3aed"/>
<circle cx="864.9" cy="255.5" r="2.4" fill="#7c3aed"/>
<circle cx="890.4" cy="255.6" r="2.4" fill="#7c3aed"/>
<circle cx="916.0" cy="255.6" r="2.4" fill="#7c3aed"/>
<circle cx="941.5" cy="280.7" r="2.4" fill="#7c3aed"/>
<circle cx="958.0" cy="282.1" r="2.4" fill="#7c3aed"/>
<path d="M 559.0,244.4 L 599.5,284.5 L 643.9,297.2 L 684.4,298.5 L 728.8,304.0 L 769.3,303.6 L 813.7,303.7 L 839.3,297.3 L 864.9,304.6 L 890.4,303.4 L 916.0,301.1 L 941.5,299.9 L 958.0,299.6" fill="none" stroke="#dc2626" stroke-width="1.8"/>
<circle cx="559.0" cy="244.4" r="2.4" fill="#dc2626"/>
<circle cx="599.5" cy="284.5" r="2.4" fill="#dc2626"/>
<circle cx="643.9" cy="297.2" r="2.4" fill="#dc2626"/>
<circle cx="684.4" cy="298.5" r="2.4" fill="#dc2626"/>
<circle cx="728.8" cy="304.0" r="2.4" fill="#dc2626"/>
<circle cx="769.3" cy="303.6" r="2.4" fill="#dc2626"/>
<circle cx="813.7" cy="303.7" r="2.4" fill="#dc2626"/>
<circle cx="839.3" cy="297.3" r="2.4" fill="#dc2626"/>
<circle cx="864.9" cy="304.6" r="2.4" fill="#dc2626"/>
<circle cx="890.4" cy="303.4" r="2.4" fill="#dc2626"/>
<circle cx="916.0" cy="301.1" r="2.4" fill="#dc2626"/>
<circle cx="941.5" cy="299.9" r="2.4" fill="#dc2626"/>
<circle cx="958.0" cy="299.6" r="2.4" fill="#dc2626"/>
<path d="M 559.0,267.3 L 599.5,307.9 L 643.9,317.3 L 684.4,321.8 L 728.8,320.0 L 769.3,323.4 L 813.7,319.2 L 839.3,321.9 L 864.9,322.0 L 890.4,323.4 L 916.0,321.6 L 941.5,323.8 L 958.0,323.0" fill="none" stroke="#2563eb" stroke-width="1.8"/>
<circle cx="559.0" cy="267.3" r="2.4" fill="#2563eb"/>
<circle cx="599.5" cy="307.9" r="2.4" fill="#2563eb"/>
<circle cx="643.9" cy="317.3" r="2.4" fill="#2563eb"/>
<circle cx="684.4" cy="321.8" r="2.4" fill="#2563eb"/>
<circle cx="728.8" cy="320.0" r="2.4" fill="#2563eb"/>
<circle cx="769.3" cy="323.4" r="2.4" fill="#2563eb"/>
<circle cx="813.7" cy="319.2" r="2.4" fill="#2563eb"/>
<circle cx="839.3" cy="321.9" r="2.4" fill="#2563eb"/>
<circle cx="864.9" cy="322.0" r="2.4" fill="#2563eb"/>
<circle cx="890.4" cy="323.4" r="2.4" fill="#2563eb"/>
<circle cx="916.0" cy="321.6" r="2.4" fill="#2563eb"/>
<circle cx="941.5" cy="323.8" r="2.4" fill="#2563eb"/>
<circle cx="958.0" cy="323.0" r="2.4" fill="#2563eb"/>
<path d="M 559.0,288.0 L 599.5,321.0 L 643.9,330.0 L 684.4,328.9 L 728.8,334.1 L 769.3,335.3 L 813.7,329.0 L 839.3,330.2 L 864.9,334.4 L 890.4,332.8 L 916.0,335.5 L 941.5,332.2 L 958.0,328.9" fill="none" stroke="#059669" stroke-width="1.8"/>
<circle cx="559.0" cy="288.0" r="2.4" fill="#059669"/>
<circle cx="599.5" cy="321.0" r="2.4" fill="#059669"/>
<circle cx="643.9" cy="330.0" r="2.4" fill="#059669"/>
<circle cx="684.4" cy="328.9" r="2.4" fill="#059669"/>
<circle cx="728.8" cy="334.1" r="2.4" fill="#059669"/>
<circle cx="769.3" cy="335.3" r="2.4" fill="#059669"/>
<circle cx="813.7" cy="329.0" r="2.4" fill="#059669"/>
<circle cx="839.3" cy="330.2" r="2.4" fill="#059669"/>
<circle cx="864.9" cy="334.4" r="2.4" fill="#059669"/>
<circle cx="890.4" cy="332.8" r="2.4" fill="#059669"/>
<circle cx="916.0" cy="335.5" r="2.4" fill="#059669"/>
<circle cx="941.5" cy="332.2" r="2.4" fill="#059669"/>
<circle cx="958.0" cy="328.9" r="2.4" fill="#059669"/>
<text x="758.5" y="424.0" font-family="ui-sans-serif,-apple-system,Segoe UI,Roboto,sans-serif" font-size="11" fill="#6b7280" text-anchor="middle" font-weight="normal">payload (log scale)</text>
<line x1="684.4" y1="110.5" x2="702.4" y2="110.5" stroke="#7c3aed" stroke-width="2.4"/>
<text x="708.4" y="114.5" font-family="ui-sans-serif,-apple-system,Segoe UI,Roboto,sans-serif" font-size="9.5" fill="#1b1b1f" text-anchor="start" font-weight="normal">OFDM + cover (auto quality)</text>
<line x1="684.4" y1="125.5" x2="702.4" y2="125.5" stroke="#dc2626" stroke-width="2.4"/>
<text x="708.4" y="129.5" font-family="ui-sans-serif,-apple-system,Segoe UI,Roboto,sans-serif" font-size="9.5" fill="#1b1b1f" text-anchor="start" font-weight="normal">dense (default)</text>
<line x1="684.4" y1="140.5" x2="702.4" y2="140.5" stroke="#2563eb" stroke-width="2.4"/>
<text x="708.4" y="144.5" font-family="ui-sans-serif,-apple-system,Segoe UI,Roboto,sans-serif" font-size="9.5" fill="#1b1b1f" text-anchor="start" font-weight="normal">compact</text>
<line x1="684.4" y1="155.5" x2="702.4" y2="155.5" stroke="#059669" stroke-width="2.4"/>
<text x="708.4" y="159.5" font-family="ui-sans-serif,-apple-system,Segoe UI,Roboto,sans-serif" font-size="9.5" fill="#1b1b1f" text-anchor="start" font-weight="normal">--qam-bits 20</text></svg>