<svg xmlns="http://www.w3.org/2000/svg" width="900" height="320" viewBox="0 0 900 320"><rect width="100%" height="100%" fill="white"/><text x="40.0" y="30.0" font-family="ui-sans-serif,-apple-system,Segoe UI,Roboto,sans-serif" font-size="15" fill="#1b1b1f" text-anchor="start" font-weight="600">Where a payload byte actually lives</text>
<text x="40.0" y="48.0" font-family="ui-sans-serif,-apple-system,Segoe UI,Roboto,sans-serif" font-size="11" fill="#6b7280" text-anchor="start" font-weight="normal">schematic, not measured</text>
<rect x="129.0" y="157.0" width="23.0" height="23.0" fill="#9ca3af" fill-opacity="0.03" stroke="none"/>
<rect x="155.0" y="157.0" width="23.0" height="23.0" fill="#9ca3af" fill-opacity="0.03" stroke="none"/>
<rect x="181.0" y="157.0" width="23.0" height="23.0" fill="#9ca3af" fill-opacity="0.03" stroke="none"/>
<rect x="207.0" y="157.0" width="23.0" height="23.0" fill="#9ca3af" fill-opacity="0.03" stroke="none"/>
<rect x="233.0" y="157.0" width="23.0" height="23.0" fill="#9ca3af" fill-opacity="0.03" stroke="none"/>
<rect x="259.0" y="157.0" width="23.0" height="23.0" fill="#9ca3af" fill-opacity="0.03" stroke="none"/>
<rect x="285.0" y="157.0" width="23.0" height="23.0" fill="#9ca3af" fill-opacity="0.03" stroke="none"/>
<rect x="311.0" y="157.0" width="23.0" height="23.0" fill="#9ca3af" fill-opacity="0.03" stroke="none"/>
<rect x="337.0" y="157.0" width="23.0" height="23.0" fill="#9ca3af" fill-opacity="0.03" stroke="none"/>
<rect x="363.0" y="157.0" width="23.0" height="23.0" fill="#9ca3af" fill-opacity="0.03" stroke="none"/>
<rect x="389.0" y="157.0" width="23.0" height="23.0" fill="#9ca3af" fill-opacity="0.03" stroke="none"/>
<rect x="415.0" y="157.0" width="23.0" height="23.0" fill="#9ca3af" fill-opacity="0.03" stroke="none"/>
<rect x="129.0" y="131.0" width="23.0" height="23.0" fill="#9ca3af" fill-opacity="0.03" stroke="none"/>
<rect x="155.0" y="131.0" width="23.0" height="23.0" fill="#9ca3af" fill-opacity="0.03" stroke="none"/>
<rect x="181.0" y="131.0" width="23.0" height="23.0" fill="#9ca3af" fill-opacity="0.03" stroke="none"/>
<rect x="207.0" y="131.0" width="23.0" height="23.0" fill="#9ca3af" fill-opacity="0.03" stroke="none"/>
<rect x="233.0" y="131.0" width="23.0" height="23.0" fill="#9ca3af" fill-opacity="0.03" stroke="none"/>
<rect x="259.0" y="131.0" width="23.0" height="23.0" fill="#9ca3af" fill-opacity="0.03" stroke="none"/>
<rect x="285.0" y="131.0" width="23.0" height="23.0" fill="#9ca3af" fill-opacity="0.03" stroke="none"/>
<rect x="311.0" y="131.0" width="23.0" height="23.0" fill="#9ca3af" fill-opacity="0.03" stroke="none"/>
<rect x="337.0" y="131.0" width="23.0" height="23.0" fill="#9ca3af" fill-opacity="0.03" stroke="none"/>
<rect x="363.0" y="131.0" width="23.0" height="23.0" fill="#9ca3af" fill-opacity="0.03" stroke="none"/>
<rect x="389.0" y="131.0" width="23.0" height="23.0" fill="#9ca3af" fill-opacity="0.03" stroke="none"/>
<rect x="415.0" y="131.0" width="23.0" height="23.0" fill="#9ca3af" fill-opacity="0.03" stroke="none"/>
<rect x="129.0" y="105.0" width="23.0" height="23.0" fill="#9ca3af" fill-opacity="0.03" stroke="none"/>
<rect x="155.0" y="105.0" width="23.0" height="23.0" fill="#9ca3af" fill-opacity="0.03" stroke="none"/>
<rect x="181.0" y="105.0" width="23.0" height="23.0" fill="#9ca3af" fill-opacity="0.03" stroke="none"/>
<rect x="207.0" y="105.0" width="23.0" height="23.0" fill="#9ca3af" fill-opacity="0.03" stroke="none"/>
<rect x="233.0" y="105.0" width="23.0" height="23.0" fill="#9ca3af" fill-opacity="0.03" stroke="none"/>
<rect x="259.0" y="105.0" width="23.0" height="23.0" fill="#9ca3af" fill-opacity="0.03" stroke="none"/>
<rect x="285.0" y="105.0" width="23.0" height="23.0" fill="#9ca3af" fill-opacity="0.03" stroke="none"/>
<rect x="311.0" y="105.0" width="23.0" height="23.0" fill="#9ca3af" fill-opacity="0.03" stroke="none"/>
<rect x="337.0" y="105.0" width="23.0" height="23.0" fill="#9ca3af" fill-opacity="0.03" stroke="none"/>
<rect x="363.0" y="105.0" width="23.0" height="23.0" fill="#9ca3af" fill-opacity="0.03" stroke="none"/>
<rect x="389.0" y="105.0" width="23.0" height="23.0" fill="#9ca3af" fill-opacity="0.03" stroke="none"/>
<rect x="415.0" y="105.0" width="23.0" height="23.0" fill="#9ca3af" fill-opacity="0.03" stroke="none"/>
<rect x="129.0" y="79.0" width="23.0" height="23.0" fill="#9ca3af" fill-opacity="0.03" stroke="none"/>
<rect x="155.0" y="79.0" width="23.0" height="23.0" fill="#9ca3af" fill-opacity="0.03" stroke="none"/>
<rect x="181.0" y="79.0" width="23.0" height="23.0" fill="#9ca3af" fill-opacity="0.03" stroke="none"/>
<rect x="207.0" y="79.0" width="23.0" height="23.0" fill="#9ca3af" fill-opacity="0.03" stroke="none"/>
<rect x="233.0" y="79.0" width="23.0" height="23.0" fill="#9ca3af" fill-opacity="0.03" stroke="none"/>
<rect x="259.0" y="79.0" width="23.0" height="23.0" fill="#9ca3af" fill-opacity="0.03" stroke="none"/>
<rect x="285.0" y="79.0" width="23.0" height="23.0" fill="#9ca3af" fill-opacity="0.03" stroke="none"/>
<rect x="311.0" y="79.0" width="23.0" height="23.0" fill="#9ca3af" fill-opacity="0.03" stroke="none"/>
<rect x="337.0" y="79.0" width="23.0" height="23.0" fill="#9ca3af" fill-opacity="0.03" stroke="none"/>
<rect x="363.0" y="79.0" width="23.0" height="23.0" fill="#9ca3af" fill-opacity="0.03" stroke="none"/>
<rect x="389.0" y="79.0" width="23.0" height="23.0" fill="#9ca3af" fill-opacity="0.03" stroke="none"/>
<rect x="415.0" y="79.0" width="23.0" height="23.0" fill="#9ca3af" fill-opacity="0.03" stroke="none"/>
<rect x="129.0" y="53.0" width="23.0" height="23.0" fill="#9ca3af" fill-opacity="0.03" stroke="none"/>
<rect x="155.0" y="53.0" width="23.0" height="23.0" fill="#9ca3af" fill-opacity="0.03" stroke="none"/>
<rect x="181.0" y="53.0" width="23.0" height="23.0" fill="#9ca3af" fill-opacity="0.03" stroke="none"/>
<rect x="207.0" y="53.0" width="23.0" height="23.0" fill="#9ca3af" fill-opacity="0.03" stroke="none"/>
<rect x="233.0" y="53.0" width="23.0" height="23.0" fill="#9ca3af" fill-opacity="0.03" stroke="none"/>
<rect x="259.0" y="53.0" width="23.0" height="23.0" fill="#9ca3af" fill-opacity="0.03" stroke="none"/>
<rect x="285.0" y="53.0" width="23.0" height="23.0" fill="#9ca3af" fill-opacity="0.03" stroke="none"/>
<rect x="311.0" y="53.0" width="23.0" height="23.0" fill="#9ca3af" fill-opacity="0.03" stroke="none"/>
<rect x="337.0" y="53.0" width="23.0" height="23.0" fill="#9ca3af" fill-opacity="0.03" stroke="none"/>
<rect x="363.0" y="53.0" width="23.0" height="23.0" fill="#9ca3af" fill-opacity="0.03" stroke="none"/>
<rect x="389.0" y="53.0" width="23.0" height="23.0" fill="#9ca3af" fill-opacity="0.03" stroke="none"/>
<rect x="415.0" y="53.0" width="23.0" height="23.0" fill="#9ca3af" fill-opacity="0.03" stroke="none"/>
<rect x="116.0" y="166.0" width="23.0" height="23.0" fill="#9ca3af" fill-opacity="0.03" stroke="none"/>
<rect x="142.0" y="166.0" width="23.0" height="23.0" fill="#9ca3af" fill-opacity="0.03" stroke="none"/>
<rect x="168.0" y="166.0" width="23.0" height="23.0" fill="#9ca3af" fill-opacity="0.03" stroke="none"/>
<rect x="194.0" y="166.0" width="23.0" height="23.0" fill="#9ca3af" fill-opacity="0.03" stroke="none"/>
<rect x="220.0" y="166.0" width="23.0" height="23.0" fill="#9ca3af" fill-opacity="0.03" stroke="none"/>
<rect x="246.0" y="166.0" width="23.0" height="23.0" fill="#9ca3af" fill-opacity="0.03" stroke="none"/>
<rect x="272.0" y="166.0" width="23.0" height="23.0" fill="#9ca3af" fill-opacity="0.03" stroke="none"/>
<rect x="298.0" y="166.0" width="23.0" height="23.0" fill="#9ca3af" fill-opacity="0.03" stroke="none"/>
<rect x="324.0" y="166.0" width="23.0" height="23.0" fill="#9ca3af" fill-opacity="0.03" stroke="none"/>
<rect x="350.0" y="166.0" width="23.0" height="23.0" fill="#9ca3af" fill-opacity="0.03" stroke="none"/>
<rect x="376.0" y="166.0" width="23.0" height="23.0" fill="#9ca3af" fill-opacity="0.03" stroke="none"/>
<rect x="402.0" y="166.0" width="23.0" height="23.0" fill="#9ca3af" fill-opacity="0.03" stroke="none"/>
<rect x="116.0" y="140.0" width="23.0" height="23.0" fill="#9ca3af" fill-opacity="0.03" stroke="none"/>
<rect x="142.0" y="140.0" width="23.0" height="23.0" fill="#9ca3af" fill-opacity="0.03" stroke="none"/>
<rect x="168.0" y="140.0" width="23.0" height="23.0" fill="#9ca3af" fill-opacity="0.03" stroke="none"/>
<rect x="194.0" y="140.0" width="23.0" height="23.0" fill="#9ca3af" fill-opacity="0.03" stroke="none"/>
<rect x="220.0" y="140.0" width="23.0" height="23.0" fill="#9ca3af" fill-opacity="0.03" stroke="none"/>
<rect x="246.0" y="140.0" width="23.0" height="23.0" fill="#9ca3af" fill-opacity="0.03" stroke="none"/>
<rect x="272.0" y="140.0" width="23.0" height="23.0" fill="#9ca3af" fill-opacity="0.03" stroke="none"/>
<rect x="298.0" y="140.0" width="23.0" height="23.0" fill="#9ca3af" fill-opacity="0.03" stroke="none"/>
<rect x="324.0" y="140.0" width="23.0" height="23.0" fill="#9ca3af" fill-opacity="0.03" stroke="none"/>
<rect x="350.0" y="140.0" width="23.0" height="23.0" fill="#9ca3af" fill-opacity="0.03" stroke="none"/>
<rect x="376.0" y="140.0" width="23.0" height="23.0" fill="#9ca3af" fill-opacity="0.03" stroke="none"/>
<rect x="402.0" y="140.0" width="23.0" height="23.0" fill="#9ca3af" fill-opacity="0.03" stroke="none"/>
<rect x="116.0" y="114.0" width="23.0" height="23.0" fill="#9ca3af" fill-opacity="0.03" stroke="none"/>
<rect x="142.0" y="114.0" width="23.0" height="23.0" fill="#9ca3af" fill-opacity="0.03" stroke="none"/>
<rect x="168.0" y="114.0" width="23.0" height="23.0" fill="#9ca3af" fill-opacity="0.03" stroke="none"/>
<rect x="194.0" y="114.0" width="23.0" height="23.0" fill="#9ca3af" fill-opacity="0.03" stroke="none"/>
<rect x="220.0" y="114.0" width="23.0" height="23.0" fill="#9ca3af" fill-opacity="0.03" stroke="none"/>
<rect x="246.0" y="114.0" width="23.0" height="23.0" fill="#9ca3af" fill-opacity="0.03" stroke="none"/>
<rect x="272.0" y="114.0" width="23.0" height="23.0" fill="#9ca3af" fill-opacity="0.03" stroke="none"/>
<rect x="298.0" y="114.0" width="23.0" height="23.0" fill="#9ca3af" fill-opacity="0.03" stroke="none"/>
<rect x="324.0" y="114.0" width="23.0" height="23.0" fill="#9ca3af" fill-opacity="0.03" stroke="none"/>
<rect x="350.0" y="114.0" width="23.0" height="23.0" fill="#9ca3af" fill-opacity="0.03" stroke="none"/>
<rect x="376.0" y="114.0" width="23.0" height="23.0" fill="#9ca3af" fill-opacity="0.03" stroke="none"/>
<rect x="402.0" y="114.0" width="23.0" height="23.0" fill="#9ca3af" fill-opacity="0.03" stroke="none"/>
<rect x="116.0" y="88.0" width="23.0" height="23.0" fill="#9ca3af" fill-opacity="0.03" stroke="none"/>
<rect x="142.0" y="88.0" width="23.0" height="23.0" fill="#9ca3af" fill-opacity="0.03" stroke="none"/>
<rect x="168.0" y="88.0" width="23.0" height="23.0" fill="#9ca3af" fill-opacity="0.03" stroke="none"/>
<rect x="194.0" y="88.0" width="23.0" height="23.0" fill="#9ca3af" fill-opacity="0.03" stroke="none"/>
<rect x="220.0" y="88.0" width="23.0" height="23.0" fill="#9ca3af" fill-opacity="0.03" stroke="none"/>
<rect x="246.0" y="88.0" width="23.0" height="23.0" fill="#9ca3af" fill-opacity="0.03" stroke="none"/>
<rect x="272.0" y="88.0" width="23.0" height="23.0" fill="#9ca3af" fill-opacity="0.03" stroke="none"/>
<rect x="298.0" y="88.0" width="23.0" height="23.0" fill="#9ca3af" fill-opacity="0.03" stroke="none"/>
<rect x="324.0" y="88.0" width="23.0" height="23.0" fill="#9ca3af" fill-opacity="0.03" stroke="none"/>
<rect x="350.0" y="88.0" width="23.0" height="23.0" fill="#9ca3af" fill-opacity="0.03" stroke="none"/>
<rect x="376.0" y="88.0" width="23.0" height="23.0" fill="#9ca3af" fill-opacity="0.03" stroke="none"/>
<rect x="402.0" y="88.0" width="23.0" height="23.0" fill="#9ca3af" fill-opacity="0.03" stroke="none"/>
<rect x="116.0" y="62.0" width="23.0" height="23.0" fill="#9ca3af" fill-opacity="0.03" stroke="none"/>
<rect x="142.0" y="62.0" width="23.0" height="23.0" fill="#9ca3af" fill-opacity="0.03" stroke="none"/>
<rect x="168.0" y="62.0" width="23.0" height="23.0" fill="#9ca3af" fill-opacity="0.03" stroke="none"/>
<rect x="194.0" y="62.0" width="23.0" height="23.0" fill="#9ca3af" fill-opacity="0.03" stroke="none"/>
<rect x="220.0" y="62.0" width="23.0" height="23.0" fill="#9ca3af" fill-opacity="0.03" stroke="none"/>
<rect x="246.0" y="62.0" width="23.0" height="23.0" fill="#9ca3af" fill-opacity="0.03" stroke="none"/>
<rect x="272.0" y="62.0" width="23.0" height="23.0" fill="#9ca3af" fill-opacity="0.03" stroke="none"/>
<rect x="298.0" y="62.0" width="23.0" height="23.0" fill="#9ca3af" fill-opacity="0.03" stroke="none"/>
<rect x="324.0" y="62.0" width="23.0" height="23.0" fill="#9ca3af" fill-opacity="0.03" stroke="none"/>
<rect x="350.0" y="62.0" width="23.0" height="23.0" fill="#9ca3af" fill-opacity="0.03" stroke="none"/>
<rect x="376.0" y="62.0" width="23.0" height="23.0" fill="#9ca3af" fill-opacity="0.03" stroke="none"/>
<rect x="402.0" y="62.0" width="23.0" height="23.0" fill="#9ca3af" fill-opacity="0.03" stroke="none"/>
<rect x="103.0" y="175.0" width="23.0" height="23.0" fill="#9ca3af" fill-opacity="0.03" stroke="none"/>
<rect x="129.0" y="175.0" width="23.0" height="23.0" fill="#9ca3af" fill-opacity="0.03" stroke="none"/>
<rect x="155.0" y="175.0" width="23.0" height="23.0" fill="#9ca3af" fill-opacity="0.03" stroke="none"/>
<rect x="181.0" y="175.0" width="23.0" height="23.0" fill="#9ca3af" fill-opacity="0.03" stroke="none"/>
<rect x="207.0" y="175.0" width="23.0" height="23.0" fill="#9ca3af" fill-opacity="0.03" stroke="none"/>
<rect x="233.0" y="175.0" width="23.0" height="23.0" fill="#9ca3af" fill-opacity="0.03" stroke="none"/>
<rect x="259.0" y="175.0" width="23.0" height="23.0" fill="#9ca3af" fill-opacity="0.03" stroke="none"/>
<rect x="285.0" y="175.0" width="23.0" height="23.0" fill="#9ca3af" fill-opacity="0.03" stroke="none"/>
<rect x="311.0" y="175.0" width="23.0" height="23.0" fill="#9ca3af" fill-opacity="0.03" stroke="none"/>
<rect x="337.0" y="175.0" width="23.0" height="23.0" fill="#9ca3af" fill-opacity="0.03" stroke="none"/>
<rect x="363.0" y="175.0" width="23.0" height="23.0" fill="#9ca3af" fill-opacity="0.03" stroke="none"/>
<rect x="389.0" y="175.0" width="23.0" height="23.0" fill="#9ca3af" fill-opacity="0.03" stroke="none"/>
<rect x="103.0" y="149.0" width="23.0" height="23.0" fill="#9ca3af" fill-opacity="0.03" stroke="none"/>
<rect x="129.0" y="149.0" width="23.0" height="23.0" fill="#9ca3af" fill-opacity="0.03" stroke="none"/>
<rect x="155.0" y="149.0" width="23.0" height="23.0" fill="#9ca3af" fill-opacity="0.03" stroke="none"/>
<rect x="181.0" y="149.0" width="23.0" height="23.0" fill="#9ca3af" fill-opacity="0.03" stroke="none"/>
<rect x="207.0" y="149.0" width="23.0" height="23.0" fill="#9ca3af" fill-opacity="0.03" stroke="none"/>
<rect x="233.0" y="149.0" width="23.0" height="23.0" fill="#9ca3af" fill-opacity="0.03" stroke="none"/>
<rect x="259.0" y="149.0" width="23.0" height="23.0" fill="#9ca3af" fill-opacity="0.03" stroke="none"/>
<rect x="285.0" y="149.0" width="23.0" height="23.0" fill="#9ca3af" fill-opacity="0.03" stroke="none"/>
<rect x="311.0" y="149.0" width="23.0" height="23.0" fill="#9ca3af" fill-opacity="0.03" stroke="none"/>
<rect x="337.0" y="149.0" width="23.0" height="23.0" fill="#9ca3af" fill-opacity="0.03" stroke="none"/>
<rect x="363.0" y="149.0" width="23.0" height="23.0" fill="#9ca3af" fill-opacity="0.03" stroke="none"/>
<rect x="389.0" y="149.0" width="23.0" height="23.0" fill="#9ca3af" fill-opacity="0.03" stroke="none"/>
<rect x="103.0" y="123.0" width="23.0" height="23.0" fill="#9ca3af" fill-opacity="0.03" stroke="none"/>
<rect x="129.0" y="123.0" width="23.0" height="23.0" fill="#9ca3af" fill-opacity="0.03" stroke="none"/>
<rect x="155.0" y="123.0" width="23.0" height="23.0" fill="#9ca3af" fill-opacity="0.03" stroke="none"/>
<rect x="181.0" y="123.0" width="23.0" height="23.0" fill="#9ca3af" fill-opacity="0.03" stroke="none"/>
<rect x="207.0" y="123.0" width="23.0" height="23.0" fill="#9ca3af" fill-opacity="0.03" stroke="none"/>
<rect x="233.0" y="123.0" width="23.0" height="23.0" fill="#9ca3af" fill-opacity="0.03" stroke="none"/>
<rect x="259.0" y="123.0" width="23.0" height="23.0" fill="#9ca3af" fill-opacity="0.03" stroke="none"/>
<rect x="285.0" y="123.0" width="23.0" height="23.0" fill="#9ca3af" fill-opacity="0.03" stroke="none"/>
<rect x="311.0" y="123.0" width="23.0" height="23.0" fill="#9ca3af" fill-opacity="0.03" stroke="none"/>
<rect x="337.0" y="123.0" width="23.0" height="23.0" fill="#9ca3af" fill-opacity="0.03" stroke="none"/>
<rect x="363.0" y="123.0" width="23.0" height="23.0" fill="#9ca3af" fill-opacity="0.03" stroke="none"/>
<rect x="389.0" y="123.0" width="23.0" height="23.0" fill="#9ca3af" fill-opacity="0.03" stroke="none"/>
<rect x="103.0" y="97.0" width="23.0" height="23.0" fill="#9ca3af" fill-opacity="0.03" stroke="none"/>
<rect x="129.0" y="97.0" width="23.0" height="23.0" fill="#9ca3af" fill-opacity="0.03" stroke="none"/>
<rect x="155.0" y="97.0" width="23.0" height="23.0" fill="#9ca3af" fill-opacity="0.03" stroke="none"/>
<rect x="181.0" y="97.0" width="23.0" height="23.0" fill="#9ca3af" fill-opacity="0.03" stroke="none"/>
<rect x="207.0" y="97.0" width="23.0" height="23.0" fill="#9ca3af" fill-opacity="0.03" stroke="none"/>
<rect x="233.0" y="97.0" width="23.0" height="23.0" fill="#9ca3af" fill-opacity="0.03" stroke="none"/>
<rect x="259.0" y="97.0" width="23.0" height="23.0" fill="#9ca3af" fill-opacity="0.03" stroke="none"/>
<rect x="285.0" y="97.0" width="23.0" height="23.0" fill="#9ca3af" fill-opacity="0.03" stroke="none"/>
<rect x="311.0" y="97.0" width="23.0" height="23.0" fill="#9ca3af" fill-opacity="0.03" stroke="none"/>
<rect x="337.0" y="97.0" width="23.0" height="23.0" fill="#9ca3af" fill-opacity="0.03" stroke="none"/>
<rect x="363.0" y="97.0" width="23.0" height="23.0" fill="#9ca3af" fill-opacity="0.03" stroke="none"/>
<rect x="389.0" y="97.0" width="23.0" height="23.0" fill="#9ca3af" fill-opacity="0.03" stroke="none"/>
<rect x="103.0" y="71.0" width="23.0" height="23.0" fill="#9ca3af" fill-opacity="0.03" stroke="none"/>
<rect x="129.0" y="71.0" width="23.0" height="23.0" fill="#9ca3af" fill-opacity="0.03" stroke="none"/>
<rect x="155.0" y="71.0" width="23.0" height="23.0" fill="#9ca3af" fill-opacity="0.03" stroke="none"/>
<rect x="181.0" y="71.0" width="23.0" height="23.0" fill="#9ca3af" fill-opacity="0.03" stroke="none"/>
<rect x="207.0" y="71.0" width="23.0" height="23.0" fill="#9ca3af" fill-opacity="0.03" stroke="none"/>
<rect x="233.0" y="71.0" width="23.0" height="23.0" fill="#9ca3af" fill-opacity="0.03" stroke="none"/>
<rect x="259.0" y="71.0" width="23.0" height="23.0" fill="#9ca3af" fill-opacity="0.03" stroke="none"/>
<rect x="285.0" y="71.0" width="23.0" height="23.0" fill="#9ca3af" fill-opacity="0.03" stroke="none"/>
<rect x="311.0" y="71.0" width="23.0" height="23.0" fill="#9ca3af" fill-opacity="0.03" stroke="none"/>
<rect x="337.0" y="71.0" width="23.0" height="23.0" fill="#9ca3af" fill-opacity="0.03" stroke="none"/>
<rect x="363.0" y="71.0" width="23.0" height="23.0" fill="#9ca3af" fill-opacity="0.03" stroke="none"/>
<rect x="389.0" y="71.0" width="23.0" height="23.0" fill="#9ca3af" fill-opacity="0.03" stroke="none"/>
<rect x="90.0" y="184.0" width="23.0" height="23.0" fill="#2563eb" fill-opacity="0.1" stroke="none"/>
<rect x="116.0" y="184.0" width="23.0" height="23.0" fill="#2563eb" fill-opacity="0.24000000000000002" stroke="none"/>
<rect x="142.0" y="184.0" width="23.0" height="23.0" fill="#2563eb" fill-opacity="0.38" stroke="none"/>
<rect x="168.0" y="184.0" width="23.0" height="23.0" fill="#2563eb" fill-opacity="0.1" stroke="none"/>
<rect x="194.0" y="184.0" width="23.0" height="23.0" fill="#2563eb" fill-opacity="0.24000000000000002" stroke="none"/>
<rect x="220.0" y="184.0" width="23.0" height="23.0" fill="#2563eb" fill-opacity="0.38" stroke="none"/>
<rect x="246.0" y="184.0" width="23.0" height="23.0" fill="#2563eb" fill-opacity="0.1" stroke="none"/>
<rect x="272.0" y="184.0" width="23.0" height="23.0" fill="#2563eb" fill-opacity="0.24000000000000002" stroke="none"/>
<rect x="298.0" y="184.0" width="23.0" height="23.0" fill="#2563eb" fill-opacity="0.38" stroke="none"/>
<rect x="324.0" y="184.0" width="23.0" height="23.0" fill="#2563eb" fill-opacity="0.1" stroke="none"/>
<rect x="350.0" y="184.0" width="23.0" height="23.0" fill="#2563eb" fill-opacity="0.24000000000000002" stroke="none"/>
<rect x="376.0" y="184.0" width="23.0" height="23.0" fill="#2563eb" fill-opacity="0.38" stroke="none"/>
<rect x="90.0" y="158.0" width="23.0" height="23.0" fill="#2563eb" fill-opacity="0.24000000000000002" stroke="none"/>
<rect x="116.0" y="158.0" width="23.0" height="23.0" fill="#2563eb" fill-opacity="0.38" stroke="none"/>
<rect x="142.0" y="158.0" width="23.0" height="23.0" fill="#2563eb" fill-opacity="0.1" stroke="none"/>
<rect x="168.0" y="158.0" width="23.0" height="23.0" fill="#2563eb" fill-opacity="0.24000000000000002" stroke="none"/>
<rect x="194.0" y="158.0" width="23.0" height="23.0" fill="#2563eb" fill-opacity="0.38" stroke="none"/>
<rect x="220.0" y="158.0" width="23.0" height="23.0" fill="#2563eb" fill-opacity="0.1" stroke="none"/>
<rect x="246.0" y="158.0" width="23.0" height="23.0" fill="#2563eb" fill-opacity="0.24000000000000002" stroke="none"/>
<rect x="272.0" y="158.0" width="23.0" height="23.0" fill="#2563eb" fill-opacity="0.38" stroke="none"/>
<rect x="298.0" y="158.0" width="23.0" height="23.0" fill="#2563eb" fill-opacity="0.1" stroke="none"/>
<rect x="324.0" y="158.0" width="23.0" height="23.0" fill="#2563eb" fill-opacity="0.24000000000000002" stroke="none"/>
<rect x="350.0" y="158.0" width="23.0" height="23.0" fill="#2563eb" fill-opacity="0.38" stroke="none"/>
<rect x="376.0" y="158.0" width="23.0" height="23.0" fill="#2563eb" fill-opacity="0.1" stroke="none"/>
<rect x="90.0" y="132.0" width="23.0" height="23.0" fill="#2563eb" fill-opacity="0.38" stroke="none"/>
<rect x="116.0" y="132.0" width="23.0" height="23.0" fill="#2563eb" fill-opacity="0.1" stroke="none"/>
<rect x="142.0" y="132.0" width="23.0" height="23.0" fill="#2563eb" fill-opacity="0.24000000000000002" stroke="none"/>
<rect x="168.0" y="132.0" width="23.0" height="23.0" fill="#2563eb" fill-opacity="0.38" stroke="none"/>
<rect x="194.0" y="132.0" width="23.0" height="23.0" fill="#2563eb" fill-opacity="0.1" stroke="none"/>
<rect x="220.0" y="132.0" width="23.0" height="23.0" fill="#2563eb" fill-opacity="0.24000000000000002" stroke="none"/>
<rect x="246.0" y="132.0" width="23.0" height="23.0" fill="#2563eb" fill-opacity="0.38" stroke="none"/>
<rect x="272.0" y="132.0" width="23.0" height="23.0" fill="#2563eb" fill-opacity="0.1" stroke="none"/>
<rect x="298.0" y="132.0" width="23.0" height="23.0" fill="#2563eb" fill-opacity="0.24000000000000002" stroke="none"/>
<rect x="324.0" y="132.0" width="23.0" height="23.0" fill="#2563eb" fill-opacity="0.38" stroke="none"/>
<rect x="350.0" y="132.0" width="23.0" height="23.0" fill="#2563eb" fill-opacity="0.1" stroke="none"/>
<rect x="376.0" y="132.0" width="23.0" height="23.0" fill="#2563eb" fill-opacity="0.24000000000000002" stroke="none"/>
<rect x="90.0" y="106.0" width="23.0" height="23.0" fill="#2563eb" fill-opacity="0.1" stroke="none"/>
<rect x="116.0" y="106.0" width="23.0" height="23.0" fill="#2563eb" fill-opacity="0.24000000000000002" stroke="none"/>
<rect x="142.0" y="106.0" width="23.0" height="23.0" fill="#2563eb" fill-opacity="0.38" stroke="none"/>
<rect x="168.0" y="106.0" width="23.0" height="23.0" fill="#2563eb" fill-opacity="0.1" stroke="none"/>
<rect x="194.0" y="106.0" width="23.0" height="23.0" fill="#2563eb" fill-opacity="0.24000000000000002" stroke="none"/>
<rect x="220.0" y="106.0" width="23.0" height="23.0" fill="#2563eb" fill-opacity="0.38" stroke="none"/>
<rect x="246.0" y="106.0" width="23.0" height="23.0" fill="#2563eb" fill-opacity="0.1" stroke="none"/>
<rect x="272.0" y="106.0" width="23.0" height="23.0" fill="#2563eb" fill-opacity="0.24000000000000002" stroke="none"/>
<rect x="298.0" y="106.0" width="23.0" height="23.0" fill="#2563eb" fill-opacity="0.38" stroke="none"/>
<rect x="324.0" y="106.0" width="23.0" height="23.0" fill="#2563eb" fill-opacity="0.1" stroke="none"/>
<rect x="350.0" y="106.0" width="23.0" height="23.0" fill="#2563eb" fill-opacity="0.24000000000000002" stroke="none"/>
<rect x="376.0" y="106.0" width="23.0" height="23.0" fill="#2563eb" fill-opacity="0.38" stroke="none"/>
<rect x="90.0" y="80.0" width="23.0" height="23.0" fill="#2563eb" fill-opacity="0.24000000000000002" stroke="none"/>
<rect x="116.0" y="80.0" width="23.0" height="23.0" fill="#2563eb" fill-opacity="0.38" stroke="none"/>
<rect x="142.0" y="80.0" width="23.0" height="23.0" fill="#2563eb" fill-opacity="0.1" stroke="none"/>
<rect x="168.0" y="80.0" width="23.0" height="23.0" fill="#2563eb" fill-opacity="0.24000000000000002" stroke="none"/>
<rect x="194.0" y="80.0" width="23.0" height="23.0" fill="#2563eb" fill-opacity="0.38" stroke="none"/>
<rect x="220.0" y="80.0" width="23.0" height="23.0" fill="#2563eb" fill-opacity="0.1" stroke="none"/>
<rect x="246.0" y="80.0" width="23.0" height="23.0" fill="#2563eb" fill-opacity="0.24000000000000002" stroke="none"/>
<rect x="272.0" y="80.0" width="23.0" height="23.0" fill="#2563eb" fill-opacity="0.38" stroke="none"/>
<rect x="298.0" y="80.0" width="23.0" height="23.0" fill="#2563eb" fill-opacity="0.1" stroke="none"/>
<rect x="324.0" y="80.0" width="23.0" height="23.0" fill="#2563eb" fill-opacity="0.24000000000000002" stroke="none"/>
<rect x="350.0" y="80.0" width="23.0" height="23.0" fill="#2563eb" fill-opacity="0.38" stroke="none"/>
<rect x="376.0" y="80.0" width="23.0" height="23.0" fill="#2563eb" fill-opacity="0.1" stroke="none"/>
<line x1="90.0" y1="218.0" x2="402.0" y2="218.0" stroke="#1b1b1f" stroke-width="1.2"/>
<text x="246.0" y="238.0" font-family="ui-sans-serif,-apple-system,Segoe UI,Roboto,sans-serif" font-size="11" fill="#1b1b1f" text-anchor="middle" font-weight="normal">time  →  symbols of 512 samples</text>
<line x1="80.0" y1="210.0" x2="80.0" y2="80.0" stroke="#1b1b1f" stroke-width="1.2"/>
<text x="72.0" y="145.0" font-family="ui-sans-serif,-apple-system,Segoe UI,Roboto,sans-serif" font-size="11" fill="#1b1b1f" text-anchor="end" font-weight="normal">frequency</text>
<text x="72.0" y="159.0" font-family="ui-sans-serif,-apple-system,Segoe UI,Roboto,sans-serif" font-size="10" fill="#6b7280" text-anchor="end" font-weight="normal">243 subcarriers</text>
<line x1="408.0" y1="86.0" x2="447.0" y2="50.0" stroke="#6b7280" stroke-width="1.2" stroke-dasharray="4 3"/>
<text x="454.0" y="50.0" font-family="ui-sans-serif,-apple-system,Segoe UI,Roboto,sans-serif" font-size="11" fill="#6b7280" text-anchor="start" font-weight="normal">channel  →  1 to 8</text>
<text x="560.0" y="92.0" font-family="ui-sans-serif,-apple-system,Segoe UI,Roboto,sans-serif" font-size="12" fill="#1b1b1f" text-anchor="start" font-weight="600">each cell is one complex QAM point</text>
<text x="560.0" y="114.0" font-family="ui-sans-serif,-apple-system,Segoe UI,Roboto,sans-serif" font-size="11" fill="#1b1b1f" text-anchor="start" font-weight="normal">I  —  6 bits   (64 levels)</text>
<text x="560.0" y="133.0" font-family="ui-sans-serif,-apple-system,Segoe UI,Roboto,sans-serif" font-size="11" fill="#1b1b1f" text-anchor="start" font-weight="normal">Q  —  6 bits   (64 levels)</text>
<text x="560.0" y="152.0" font-family="ui-sans-serif,-apple-system,Segoe UI,Roboto,sans-serif" font-size="11" fill="#6b7280" text-anchor="start" font-weight="normal">= 4096-QAM, 12 bits per cell</text>
<text x="560.0" y="186.0" font-family="ui-sans-serif,-apple-system,Segoe UI,Roboto,sans-serif" font-size="11" fill="#6b7280" text-anchor="start" font-weight="normal">time × frequency × I/Q are one signal</text>
<text x="560.0" y="203.0" font-family="ui-sans-serif,-apple-system,Segoe UI,Roboto,sans-serif" font-size="11" fill="#6b7280" text-anchor="start" font-weight="normal">N samples = N/2 complex bins = N reals.</text>
<text x="560.0" y="220.0" font-family="ui-sans-serif,-apple-system,Segoe UI,Roboto,sans-serif" font-size="11" fill="#1b1b1f" text-anchor="start" font-weight="600">Only channel adds new samples.</text></svg>